# File created by Blade
# Date/Time:  Wed Sep 24 20:26:02 2014
# Frame Rate: 120.000 fps
#------------------------------------------------------
:FULLY-SPECIFIED
:DEGREES
740
root -6.198208 33.691510 1.144656 186.517775 -60.391221 -80.806649
Spine -35.670051 16.479111 -0.520754
Head -79.556291 17.676855 3.007258
LeftShoulder -11.200846 26.067570 14.147329
LeftArm -2.896354 40.695289 -77.649598
LeftForeArm 18.668714 -0.000000 13.107134
LeftHand -29.994477 -0.000000 -7.878493
LeftHandThumb1 -26.253704 0.000000 33.147579
RightShoulder -17.902174 8.437870 -20.769981
RightArm -33.391376 -27.372705 99.574236
RightForeArm -34.567554 -0.000000 11.544581
RightHand -5.610815 -0.000000 24.351540
RightHandThumb1 -24.326973 -0.000000 -32.862282
LeftUpLeg -101.631431 22.457178 1.791142
LeftLeg -6.620882 -0.000000 0.000000
LeftFoot -6.825456 21.545101 -5.193723
LeftToeBase 3.660202 -0.000000 -0.000000
RightUpLeg 14.407614 -5.429057 -19.631654
RightLeg 23.903619 -0.000000 -0.000000
RightFoot 42.577302 1.336868 2.513485
RightToeBase 18.567124 -0.000000 -0.000000
741
root -6.195999 33.690699 1.143444 186.570265 -60.382130 -80.866696
Spine -35.723688 16.508058 -0.597639
Head -79.496081 17.614829 3.126148
LeftShoulder -11.245382 26.086722 14.144310
LeftArm -2.878717 40.665870 -77.640121
LeftForeArm 18.627119 -0.000000 13.079889
LeftHand -30.449801 -0.000000 -7.739272
LeftHandThumb1 -26.253704 0.000000 33.147579
RightShoulder -17.902674 8.370538 -20.698752
RightArm -33.476934 -27.260122 99.449666
RightForeArm -34.514450 -0.000000 11.530322
RightHand -5.462760 0.000000 24.598181
RightHandThumb1 -24.326973 -0.000000 -32.862282
LeftUpLeg -101.601951 22.476360 1.799228
LeftLeg -6.652655 -0.000000 0.000000
LeftFoot -6.855457 21.592681 -5.269383
LeftToeBase 3.656878 -0.000000 -0.000000
RightUpLeg 14.483515 -5.437347 -19.679858
RightLeg 23.885417 -0.000000 -0.000000
RightFoot 42.549429 1.240357 2.567297
RightToeBase 18.520560 -0.000000 -0.000000
742
root -6.193187 33.692910 1.144894 186.605314 -60.357782 -80.896269
Spine -35.774619 16.546635 -0.639183
Head -79.439273 17.568620 3.239120
LeftShoulder -11.276129 26.053299 14.161256
LeftArm -2.965604 40.534799 -77.716716
LeftForeArm 18.600127 -0.000000 13.079903
LeftHand -30.099422 0.000000 -7.742956
LeftHandThumb1 -26.253704 0.000000 33.147579
RightShoulder -17.864494 8.334580 -20.639807
RightArm -33.583504 -27.125944 99.358078
RightForeArm -34.549951 0.000000 11.461478
RightHand -5.452686 -0.000000 24.678322
RightHandThumb1 -24.326973 -0.000000 -32.862282
LeftUpLeg -101.637730 22.482080 1.686654
LeftLeg -6.673746 -0.000000 0.000000
LeftFoot -6.864817 21.505708 -5.402788
LeftToeBase 3.639411 -0.000000 -0.000000
RightUpLeg 14.532017 -5.396489 -19.703751
RightLeg 23.872125 -0.000000 -0.000000
RightFoot 42.479189 1.176010 2.557232
RightToeBase 18.654916 -0.000000 -0.000000
743
root -6.190853 33.696005 1.148995 186.686680 -60.362487 -80.966004
Spine -35.832644 16.553473 -0.705294
Head -79.416294 17.503575 3.376851
LeftShoulder -11.284159 26.068487 14.220155
LeftArm -3.018075 40.370229 -77.825796
LeftForeArm 18.655990 -0.000000 13.091055
LeftHand -30.088277 0.000000 -7.567569
LeftHandThumb1 -26.253704 0.000000 33.147579
RightShoulder -17.804076 8.319439 -20.559630
RightArm -33.761046 -27.055348 99.300757
RightForeArm -34.507388 0.000000 11.442562
RightHand -5.504269 -0.000000 24.808598
RightHandThumb1 -24.326973 -0.000000 -32.862282
LeftUpLeg -101.705047 22.440456 1.488869
LeftLeg -6.706832 -0.000000 0.000000
LeftFoot -6.859973 21.352555 -5.590183
LeftToeBase 3.550439 -0.000000 -0.000000
RightUpLeg 14.575967 -5.428740 -19.771845
RightLeg 23.845143 -0.000000 -0.000000
RightFoot 42.465005 1.160369 2.543873
RightToeBase 18.658537 -0.000000 -0.000000
744
root -6.187750 33.698676 1.152420 186.719381 -60.363435 -80.993241
Spine -35.872782 16.564095 -0.734841
Head -79.396465 17.432498 3.538056
LeftShoulder -11.309840 26.126391 14.274353
LeftArm -3.032834 40.252403 -77.936815
LeftForeArm 18.723671 0.000000 13.145747
LeftHand -30.141948 -0.000000 -7.396705
LeftHandThumb1 -26.253704 0.000000 33.147579
RightShoulder -17.743837 8.296056 -20.477359
RightArm -33.917898 -27.018522 99.251114
RightForeArm -34.608298 0.000000 11.371237
RightHand -5.513996 -0.000000 24.957428
RightHandThumb1 -24.326973 -0.000000 -32.862282
LeftUpLeg -101.791492 22.392348 1.244364
LeftLeg -6.737486 -0.000000 0.000000
LeftFoot -6.724607 21.167580 -5.579375
LeftToeBase 3.273436 -0.000000 -0.000000
RightUpLeg 14.632125 -5.453128 -19.821287
RightLeg 23.799361 -0.000000 -0.000000
RightFoot 42.496523 1.101846 2.558220
RightToeBase 18.486733 -0.000000 -0.000000
745
root -6.184044 33.702781 1.155140 186.738678 -60.353384 -81.005264
Spine -35.895057 16.568226 -0.748402
Head -79.425311 17.374689 3.665034
LeftShoulder -11.349042 26.160168 14.318449
LeftArm -3.084179 40.166273 -78.063808
LeftForeArm 18.799191 -0.000000 13.196305
LeftHand -30.059526 -0.000000 -7.410486
LeftHandThumb1 -26.253704 0.000000 33.147579
RightShoulder -17.657941 8.250951 -20.369793
RightArm -34.036218 -27.018789 99.182391
RightForeArm -34.639861 -0.000000 11.315927
RightHand -5.516051 -0.000000 25.194409
RightHandThumb1 -24.326973 -0.000000 -32.862282
LeftUpLeg -101.898468 22.352598 0.972448
LeftLeg -6.754316 -0.000000 0.000000
LeftFoot -6.717031 20.870222 -5.810858
LeftToeBase 3.133899 -0.000000 -0.000000
RightUpLeg 14.683299 -5.470412 -19.866161
RightLeg 23.748448 -0.000000 -0.000000
RightFoot 42.518213 1.100020 2.472347
RightToeBase 18.565464 -0.000000 -0.000000
746
root -6.179479 33.708136 1.157490 186.704358 -60.337877 -80.968619
Spine -35.887405 16.606518 -0.717921
Head -79.476777 17.257326 3.731729
LeftShoulder -11.355195 26.176623 14.343139
LeftArm -3.180704 40.308377 -78.233684
LeftForeArm 18.582512 -0.000000 13.305378
LeftHand -30.703131 -0.000000 -7.060696
LeftHandThumb1 -26.253704 0.000000 33.147579
RightShoulder -17.585239 8.273023 -20.331529
RightArm -34.251282 -27.064116 99.205804
RightForeArm -34.628194 -0.000000 11.221129
RightHand -5.405415 0.000000 25.497983
RightHandThumb1 -24.326973 -0.000000 -32.862282
LeftUpLeg -101.984851 22.335315 0.751014
LeftLeg -6.774379 -0.000000 0.000000
LeftFoot -6.719417 20.558505 -6.093503
LeftToeBase 3.143495 -0.000000 -0.000000
RightUpLeg 14.722693 -5.456838 -19.876369
RightLeg 23.744535 -0.000000 -0.000000
RightFoot 42.524158 0.979101 2.486433
RightToeBase 18.440021 -0.000000 -0.000000
747
root -6.174008 33.714649 1.160524 186.654012 -60.330391 -80.917148
Spine -35.859803 16.669440 -0.682426
Head -79.575815 17.099191 3.710383
LeftShoulder -11.340897 26.177961 14.361246
LeftArm -3.233610 40.361872 -78.364114
LeftForeArm 18.663681 -0.000000 13.354566
LeftHand -30.245759 -0.000000 -7.205541
LeftHandThumb1 -26.253704 0.000000 33.147579
RightShoulder -17.577970 8.254094 -20.328828
RightArm -34.438070 -27.163837 99.285410
RightForeArm -34.764858 -0.000000 11.160054
RightHand -5.532017 -0.000000 25.701475
RightHandThumb1 -24.326973 -0.000000 -32.862282
LeftUpLeg -102.060377 22.315187 0.542229
LeftLeg -6.804005 -0.000000 0.000000
LeftFoot -6.782726 20.168070 -6.531743
LeftToeBase 3.660411 -0.000000 -0.000000
RightUpLeg 14.759973 -5.458731 -19.893023
RightLeg 23.755060 -0.000000 -0.000000
RightFoot 42.481522 1.042622 2.325011
RightToeBase 18.454396 -0.000000 -0.000000
748
root -6.168840 33.721043 1.162457 186.595774 -60.341922 -80.856627
Spine -35.829499 16.699640 -0.632996
Head -79.672880 16.974803 3.670817
LeftShoulder -11.341822 26.159512 14.356408
LeftArm -3.316812 40.405339 -78.496614
LeftForeArm 18.829658 -0.000000 13.395593
LeftHand -30.124669 -0.000000 -7.358727
LeftHandThumb1 -26.253704 0.000000 33.147579
RightShoulder -17.558943 8.187428 -20.299542
RightArm -34.541691 -27.217907 99.292052
RightForeArm -34.855932 -0.000000 11.047570
RightHand -5.586034 0.000000 25.795712
RightHandThumb1 -24.326973 -0.000000 -32.862282
LeftUpLeg -102.131598 22.295089 0.367225
LeftLeg -6.801217 -0.000000 0.000000
LeftFoot -6.795997 19.819387 -6.882940
LeftToeBase 3.353253 -0.000000 -0.000000
RightUpLeg 14.786843 -5.470199 -19.894474
RightLeg 23.820973 -0.000000 -0.000000
RightFoot 42.411220 1.032362 2.239151
RightToeBase 18.557141 -0.000000 -0.000000
749
root -6.162094 33.727679 1.165076 186.552071 -60.366882 -80.813503
Spine -35.781951 16.702633 -0.594376
Head -79.793820 16.868832 3.627413
LeftShoulder -11.347514 26.130432 14.360554
LeftArm -3.390914 40.458479 -78.642748
LeftForeArm 19.031112 -0.000000 13.378338
LeftHand -30.079521 -0.000000 -7.615187
LeftHandThumb1 -26.253704 0.000000 33.147579
RightShoulder -17.514813 8.163815 -20.300859
RightArm -34.684344 -27.187343 99.290364
RightForeArm -35.108883 -0.000000 10.957838
RightHand -5.491714 -0.000000 26.011439
RightHandThumb1 -24.326973 -0.000000 -32.862282
LeftUpLeg -102.171943 22.276946 0.274822
LeftLeg -6.798786 -0.000000 0.000000
LeftFoot -6.762240 19.572570 -7.094264
LeftToeBase 3.240065 -0.000000 -0.000000
RightUpLeg 14.810295 -5.457012 -19.893525
RightLeg 23.897603 -0.000000 -0.000000
RightFoot 42.399922 1.066679 2.169480
RightToeBase 18.602603 -0.000000 -0.000000
